0 Campus Center ground floor - stud aligned study model
0 Author: Campus Center project
0 !LICENSE Redistributable project model; standard parts supplied by your LDraw library.
0 !CATEGORY Architecture
1 71 310.0 0 -310.0 1 0 0 0 1 0 0 0 1 3811.dat
1 71 950.0 0 -310.0 1 0 0 0 1 0 0 0 1 3811.dat
1 71 1590.0 0 -310.0 1 0 0 0 1 0 0 0 1 3811.dat
1 71 310.0 0 -950.0 1 0 0 0 1 0 0 0 1 3811.dat
1 71 950.0 0 -950.0 1 0 0 0 1 0 0 0 1 3811.dat
1 71 1590.0 0 -950.0 1 0 0 0 1 0 0 0 1 3811.dat
0 STEP
1 0 1200.0 -24 -140.0 1 0 0 0 1 0 0 0 1 3005.dat
1 0 990.0 -24 -160.0 1 0 0 0 1 0 0 0 1 3010.dat
1 0 1070.0 -24 -160.0 1 0 0 0 1 0 0 0 1 3010.dat
1 0 1150.0 -24 -160.0 1 0 0 0 1 0 0 0 1 3010.dat
1 0 1250.0 -24 -160.0 1 0 0 0 1 0 0 0 1 3010.dat
1 0 1330.0 -24 -160.0 1 0 0 0 1 0 0 0 1 3010.dat
1 0 1410.0 -24 -160.0 1 0 0 0 1 0 0 0 1 3010.dat
1 0 1490.0 -24 -160.0 1 0 0 0 1 0 0 0 1 3010.dat
1 0 960.0 -24 -190.0 0 0 1 0 1 0 -1 0 0 3004.dat
1 0 1200.0 -24 -210.0 0 0 1 0 1 0 -1 0 0 3010.dat
1 0 1440.0 -24 -200.0 0 0 1 0 1 0 -1 0 0 3622.dat
1 0 1520.0 -24 -210.0 0 0 1 0 1 0 -1 0 0 3010.dat
1 0 960.0 -24 -290.0 0 0 1 0 1 0 -1 0 0 3010.dat
1 0 1200.0 -24 -290.0 0 0 1 0 1 0 -1 0 0 3010.dat
1 0 1470.0 -24 -260.0 1 0 0 0 1 0 0 0 1 3010.dat
1 0 1520.0 -24 -290.0 0 0 1 0 1 0 -1 0 0 3010.dat
1 0 710.0 -24 -280.0 1 0 0 0 1 0 0 0 1 3010.dat
1 0 790.0 -24 -280.0 1 0 0 0 1 0 0 0 1 3010.dat
1 0 850.0 -24 -280.0 1 0 0 0 1 0 0 0 1 3004.dat
1 0 900.0 -24 -310.0 0 0 1 0 1 0 -1 0 0 3010.dat
1 0 930.0 -24 -280.0 1 0 0 0 1 0 0 0 1 3004.dat
1 0 1440.0 -24 -290.0 0 0 1 0 1 0 -1 0 0 3004.dat
1 0 330.0 -24 -300.0 1 0 0 0 1 0 0 0 1 3010.dat
1 0 410.0 -24 -300.0 1 0 0 0 1 0 0 0 1 3010.dat
1 0 490.0 -24 -300.0 1 0 0 0 1 0 0 0 1 3010.dat
1 0 540.0 -24 -330.0 0 0 1 0 1 0 -1 0 0 3010.dat
1 0 560.0 -24 -300.0 1 0 0 0 1 0 0 0 1 3005.dat
1 0 630.0 -24 -300.0 1 0 0 0 1 0 0 0 1 3010.dat
1 0 680.0 -24 -330.0 0 0 1 0 1 0 -1 0 0 3010.dat
1 0 780.0 -24 -330.0 0 0 1 0 1 0 -1 0 0 3010.dat
1 0 300.0 -24 -350.0 0 0 1 0 1 0 -1 0 0 3010.dat
1 0 400.0 -24 -350.0 0 0 1 0 1 0 -1 0 0 3010.dat
1 0 460.0 -24 -350.0 0 0 1 0 1 0 -1 0 0 3010.dat
1 0 600.0 -24 -350.0 0 0 1 0 1 0 -1 0 0 3010.dat
1 0 1200.0 -24 -350.0 0 0 1 0 1 0 -1 0 0 3004.dat
1 0 1520.0 -24 -360.0 0 0 1 0 1 0 -1 0 0 3622.dat
1 0 930.0 -24 -360.0 1 0 0 0 1 0 0 0 1 3010.dat
1 0 1010.0 -24 -360.0 1 0 0 0 1 0 0 0 1 3010.dat
1 0 1090.0 -24 -360.0 1 0 0 0 1 0 0 0 1 3010.dat
1 0 1150.0 -24 -360.0 1 0 0 0 1 0 0 0 1 3004.dat
1 0 1560.0 -24 -360.0 1 0 0 0 1 0 0 0 1 3622.dat
1 0 350.0 -24 -380.0 1 0 0 0 1 0 0 0 1 3010.dat
1 0 540.0 -24 -410.0 0 0 1 0 1 0 -1 0 0 3010.dat
1 0 580.0 -24 -380.0 1 0 0 0 1 0 0 0 1 3005.dat
1 0 680.0 -24 -410.0 0 0 1 0 1 0 -1 0 0 3010.dat
1 0 780.0 -24 -400.0 0 0 1 0 1 0 -1 0 0 3622.dat
1 0 900.0 -24 -410.0 0 0 1 0 1 0 -1 0 0 3010.dat
1 0 960.0 -24 -400.0 0 0 1 0 1 0 -1 0 0 3622.dat
1 0 1580.0 -24 -380.0 1 0 0 0 1 0 0 0 1 3005.dat
1 0 300.0 -24 -430.0 0 0 1 0 1 0 -1 0 0 3010.dat
1 0 360.0 -24 -420.0 0 0 1 0 1 0 -1 0 0 3622.dat
1 0 400.0 -24 -420.0 0 0 1 0 1 0 -1 0 0 3622.dat
1 0 460.0 -24 -420.0 0 0 1 0 1 0 -1 0 0 3622.dat
1 0 600.0 -24 -430.0 0 0 1 0 1 0 -1 0 0 3010.dat
1 0 570.0 -24 -420.0 1 0 0 0 1 0 0 0 1 3004.dat
1 0 380.0 -24 -440.0 1 0 0 0 1 0 0 0 1 3005.dat
1 0 440.0 -24 -440.0 1 0 0 0 1 0 0 0 1 3005.dat
1 0 480.0 -24 -440.0 1 0 0 0 1 0 0 0 1 3005.dat
1 0 520.0 -24 -440.0 1 0 0 0 1 0 0 0 1 3005.dat
1 0 620.0 -24 -440.0 1 0 0 0 1 0 0 0 1 3005.dat
1 0 730.0 -24 -440.0 1 0 0 0 1 0 0 0 1 3010.dat
1 0 830.0 -24 -440.0 1 0 0 0 1 0 0 0 1 3010.dat
1 0 930.0 -24 -440.0 1 0 0 0 1 0 0 0 1 3004.dat
1 0 980.0 -24 -440.0 1 0 0 0 1 0 0 0 1 3005.dat
1 0 1520.0 -24 -470.0 0 0 1 0 1 0 -1 0 0 3010.dat
1 0 1580.0 -24 -450.0 0 0 1 0 1 0 -1 0 0 3004.dat
1 0 1550.0 -24 -460.0 1 0 0 0 1 0 0 0 1 3004.dat
1 0 330.0 -24 -480.0 1 0 0 0 1 0 0 0 1 3010.dat
1 0 410.0 -24 -480.0 1 0 0 0 1 0 0 0 1 3010.dat
1 0 490.0 -24 -480.0 1 0 0 0 1 0 0 0 1 3010.dat
1 0 570.0 -24 -480.0 1 0 0 0 1 0 0 0 1 3010.dat
1 0 710.0 -24 -480.0 1 0 0 0 1 0 0 0 1 3010.dat
1 0 830.0 -24 -480.0 1 0 0 0 1 0 0 0 1 3010.dat
1 0 910.0 -24 -480.0 1 0 0 0 1 0 0 0 1 3010.dat
1 0 990.0 -24 -480.0 1 0 0 0 1 0 0 0 1 3010.dat
1 0 1070.0 -24 -480.0 1 0 0 0 1 0 0 0 1 3010.dat
1 0 1150.0 -24 -480.0 1 0 0 0 1 0 0 0 1 3010.dat
1 0 1200.0 -24 -510.0 0 0 1 0 1 0 -1 0 0 3010.dat
1 0 300.0 -24 -530.0 0 0 1 0 1 0 -1 0 0 3010.dat
1 0 360.0 -24 -520.0 0 0 1 0 1 0 -1 0 0 3622.dat
1 0 680.0 -24 -530.0 0 0 1 0 1 0 -1 0 0 3010.dat
1 0 600.0 -24 -550.0 0 0 1 0 1 0 -1 0 0 3010.dat
1 0 1520.0 -24 -550.0 0 0 1 0 1 0 -1 0 0 3010.dat
1 0 1200.0 -24 -590.0 0 0 1 0 1 0 -1 0 0 3010.dat
1 0 300.0 -24 -610.0 0 0 1 0 1 0 -1 0 0 3010.dat
1 0 360.0 -24 -610.0 0 0 1 0 1 0 -1 0 0 3010.dat
1 0 680.0 -24 -610.0 0 0 1 0 1 0 -1 0 0 3010.dat
1 0 600.0 -24 -630.0 0 0 1 0 1 0 -1 0 0 3010.dat
1 0 1520.0 -24 -630.0 0 0 1 0 1 0 -1 0 0 3010.dat
1 0 330.0 -24 -620.0 1 0 0 0 1 0 0 0 1 3004.dat
1 0 410.0 -24 -620.0 1 0 0 0 1 0 0 0 1 3010.dat
1 0 490.0 -24 -620.0 1 0 0 0 1 0 0 0 1 3010.dat
1 0 560.0 -24 -620.0 1 0 0 0 1 0 0 0 1 3622.dat
1 0 1200.0 -24 -670.0 0 0 1 0 1 0 -1 0 0 3010.dat
1 0 300.0 -24 -690.0 0 0 1 0 1 0 -1 0 0 3010.dat
1 0 360.0 -24 -660.0 1 0 0 0 1 0 0 0 1 3005.dat
1 0 680.0 -24 -690.0 0 0 1 0 1 0 -1 0 0 3010.dat
1 0 600.0 -24 -700.0 0 0 1 0 1 0 -1 0 0 3622.dat
1 0 1520.0 -24 -710.0 0 0 1 0 1 0 -1 0 0 3010.dat
1 0 360.0 -24 -720.0 0 0 1 0 1 0 -1 0 0 3622.dat
1 0 1200.0 -24 -750.0 0 0 1 0 1 0 -1 0 0 3010.dat
1 0 320.0 -24 -740.0 1 0 0 0 1 0 0 0 1 3622.dat
1 0 410.0 -24 -740.0 1 0 0 0 1 0 0 0 1 3010.dat
1 0 490.0 -24 -740.0 1 0 0 0 1 0 0 0 1 3010.dat
1 0 560.0 -24 -740.0 1 0 0 0 1 0 0 0 1 3622.dat
1 0 680.0 -24 -770.0 0 0 1 0 1 0 -1 0 0 3010.dat
1 0 600.0 -24 -760.0 1 0 0 0 1 0 0 0 1 3005.dat
1 0 1520.0 -24 -770.0 0 0 1 0 1 0 -1 0 0 3004.dat
1 0 1250.0 -24 -780.0 1 0 0 0 1 0 0 0 1 3010.dat
1 0 1330.0 -24 -780.0 1 0 0 0 1 0 0 0 1 3010.dat
1 0 1410.0 -24 -780.0 1 0 0 0 1 0 0 0 1 3010.dat
1 0 1480.0 -24 -780.0 1 0 0 0 1 0 0 0 1 3622.dat
1 0 330.0 -24 -800.0 1 0 0 0 1 0 0 0 1 3010.dat
1 0 430.0 -24 -800.0 1 0 0 0 1 0 0 0 1 3010.dat
1 0 480.0 -24 -800.0 1 0 0 0 1 0 0 0 1 3005.dat
1 0 540.0 -24 -800.0 1 0 0 0 1 0 0 0 1 3622.dat
1 0 1200.0 -24 -830.0 0 0 1 0 1 0 -1 0 0 3010.dat
1 0 300.0 -24 -850.0 0 0 1 0 1 0 -1 0 0 3010.dat
1 0 400.0 -24 -840.0 0 0 1 0 1 0 -1 0 0 3622.dat
1 0 460.0 -24 -850.0 0 0 1 0 1 0 -1 0 0 3010.dat
1 0 500.0 -24 -850.0 0 0 1 0 1 0 -1 0 0 3010.dat
1 0 560.0 -24 -840.0 0 0 1 0 1 0 -1 0 0 3622.dat
1 0 680.0 -24 -850.0 0 0 1 0 1 0 -1 0 0 3010.dat
1 0 430.0 -24 -860.0 1 0 0 0 1 0 0 0 1 3004.dat
1 0 480.0 -24 -880.0 1 0 0 0 1 0 0 0 1 3005.dat
1 0 530.0 -24 -880.0 1 0 0 0 1 0 0 0 1 3004.dat
1 0 1200.0 -24 -910.0 0 0 1 0 1 0 -1 0 0 3010.dat
1 0 300.0 -24 -930.0 0 0 1 0 1 0 -1 0 0 3010.dat
1 0 400.0 -24 -930.0 0 0 1 0 1 0 -1 0 0 3010.dat
1 0 460.0 -24 -930.0 0 0 1 0 1 0 -1 0 0 3010.dat
1 0 560.0 -24 -930.0 0 0 1 0 1 0 -1 0 0 3010.dat
1 0 680.0 -24 -920.0 0 0 1 0 1 0 -1 0 0 3622.dat
1 0 350.0 -24 -960.0 1 0 0 0 1 0 0 0 1 3010.dat
1 0 430.0 -24 -960.0 1 0 0 0 1 0 0 0 1 3004.dat
1 0 510.0 -24 -960.0 1 0 0 0 1 0 0 0 1 3010.dat
1 0 630.0 -24 -960.0 1 0 0 0 1 0 0 0 1 3004.dat
1 0 700.0 -24 -960.0 1 0 0 0 1 0 0 0 1 3005.dat
1 0 1200.0 -24 -990.0 0 0 1 0 1 0 -1 0 0 3010.dat
1 0 680.0 -24 -1010.0 0 0 1 0 1 0 -1 0 0 3010.dat
1 0 1200.0 -24 -1070.0 0 0 1 0 1 0 -1 0 0 3010.dat
1 0 680.0 -24 -1080.0 0 0 1 0 1 0 -1 0 0 3622.dat
1 0 730.0 -24 -1100.0 1 0 0 0 1 0 0 0 1 3010.dat
1 0 810.0 -24 -1100.0 1 0 0 0 1 0 0 0 1 3010.dat
1 0 890.0 -24 -1100.0 1 0 0 0 1 0 0 0 1 3010.dat
1 0 970.0 -24 -1100.0 1 0 0 0 1 0 0 0 1 3010.dat
1 0 1050.0 -24 -1100.0 1 0 0 0 1 0 0 0 1 3010.dat
1 0 1130.0 -24 -1100.0 1 0 0 0 1 0 0 0 1 3010.dat
1 0 1180.0 -24 -1100.0 1 0 0 0 1 0 0 0 1 3005.dat
1 72 1270.0 -24 -570.0 1 0 0 0 1 0 0 0 1 3003.dat
1 72 1410.0 -24 -570.0 1 0 0 0 1 0 0 0 1 3003.dat
1 72 1270.0 -24 -690.0 1 0 0 0 1 0 0 0 1 3003.dat
1 72 1410.0 -24 -690.0 1 0 0 0 1 0 0 0 1 3003.dat
1 19 1050.0 -24 -230.0 0 0 1 0 1 0 -1 0 0 3001.dat
1 19 1050.0 -24 -310.0 0 0 1 0 1 0 -1 0 0 3001.dat
1 19 1150.0 -24 -230.0 0 0 1 0 1 0 -1 0 0 3001.dat
1 19 1150.0 -24 -310.0 0 0 1 0 1 0 -1 0 0 3001.dat
1 72 1090.0 -24 -230.0 1 0 0 0 1 0 0 0 1 3003.dat
1 72 1010.0 -24 -310.0 1 0 0 0 1 0 0 0 1 3003.dat
1 19 1470.0 -24 -510.0 1 0 0 0 1 0 0 0 1 3003.dat
1 19 1470.0 -24 -290.0 1 0 0 0 1 0 0 0 1 3003.dat
1 71 630.0 -24 -350.0 1 0 0 0 1 0 0 0 1 3003.dat
1 71 630.0 -24 -390.0 1 0 0 0 1 0 0 0 1 3003.dat
1 71 1230.0 -24 -290.0 1 0 0 0 1 0 0 0 1 3003.dat
1 71 1230.0 -24 -330.0 1 0 0 0 1 0 0 0 1 3003.dat
1 71 1230.0 -24 -370.0 1 0 0 0 1 0 0 0 1 3003.dat
0 STEP
1 0 300.0 -48 -330.0 0 0 1 0 1 0 -1 0 0 3010.dat
1 0 300.0 -48 -410.0 0 0 1 0 1 0 -1 0 0 3010.dat
1 0 300.0 -48 -490.0 0 0 1 0 1 0 -1 0 0 3010.dat
1 0 300.0 -48 -570.0 0 0 1 0 1 0 -1 0 0 3010.dat
1 0 300.0 -48 -650.0 0 0 1 0 1 0 -1 0 0 3010.dat
1 0 300.0 -48 -720.0 0 0 1 0 1 0 -1 0 0 3622.dat
1 0 300.0 -48 -830.0 0 0 1 0 1 0 -1 0 0 3010.dat
1 0 300.0 -48 -910.0 0 0 1 0 1 0 -1 0 0 3010.dat
1 0 300.0 -48 -960.0 1 0 0 0 1 0 0 0 1 3005.dat
1 0 350.0 -48 -300.0 1 0 0 0 1 0 0 0 1 3010.dat
1 0 350.0 -48 -380.0 1 0 0 0 1 0 0 0 1 3010.dat
1 0 350.0 -48 -480.0 1 0 0 0 1 0 0 0 1 3010.dat
1 0 350.0 -48 -620.0 1 0 0 0 1 0 0 0 1 3010.dat
1 0 350.0 -48 -740.0 1 0 0 0 1 0 0 0 1 3010.dat
1 0 340.0 -48 -800.0 1 0 0 0 1 0 0 0 1 3622.dat
1 15 340.0 -48 -960.0 1 0 0 0 1 0 0 0 1 3622.dat
1 0 360.0 -48 -420.0 0 0 1 0 1 0 -1 0 0 3622.dat
1 0 360.0 -48 -520.0 0 0 1 0 1 0 -1 0 0 3622.dat
1 0 360.0 -48 -590.0 0 0 1 0 1 0 -1 0 0 3004.dat
1 0 360.0 -48 -650.0 0 0 1 0 1 0 -1 0 0 3004.dat
1 0 360.0 -48 -710.0 0 0 1 0 1 0 -1 0 0 3004.dat
1 0 390.0 -48 -440.0 1 0 0 0 1 0 0 0 1 3004.dat
1 0 390.0 -48 -960.0 1 0 0 0 1 0 0 0 1 3004.dat
1 0 400.0 -48 -330.0 0 0 1 0 1 0 -1 0 0 3010.dat
1 0 400.0 -48 -400.0 0 0 1 0 1 0 -1 0 0 3622.dat
1 0 430.0 -48 -480.0 1 0 0 0 1 0 0 0 1 3010.dat
1 0 430.0 -48 -620.0 1 0 0 0 1 0 0 0 1 3010.dat
1 0 430.0 -48 -740.0 1 0 0 0 1 0 0 0 1 3010.dat
1 0 400.0 -48 -830.0 0 0 1 0 1 0 -1 0 0 3010.dat
1 0 400.0 -48 -920.0 0 0 1 0 1 0 -1 0 0 3622.dat
1 0 450.0 -48 -300.0 1 0 0 0 1 0 0 0 1 3010.dat
1 0 450.0 -48 -800.0 1 0 0 0 1 0 0 0 1 3010.dat
1 0 440.0 -48 -860.0 1 0 0 0 1 0 0 0 1 3622.dat
1 15 420.0 -48 -960.0 1 0 0 0 1 0 0 0 1 3005.dat
1 0 460.0 -48 -440.0 1 0 0 0 1 0 0 0 1 3622.dat
1 0 450.0 -48 -960.0 1 0 0 0 1 0 0 0 1 3004.dat
1 0 460.0 -48 -350.0 0 0 1 0 1 0 -1 0 0 3010.dat
1 0 460.0 -48 -410.0 0 0 1 0 1 0 -1 0 0 3004.dat
1 0 460.0 -48 -830.0 0 0 1 0 1 0 -1 0 0 3004.dat
1 0 460.0 -48 -910.0 0 0 1 0 1 0 -1 0 0 3010.dat
1 0 510.0 -48 -480.0 1 0 0 0 1 0 0 0 1 3010.dat
1 0 510.0 -48 -620.0 1 0 0 0 1 0 0 0 1 3010.dat
1 0 510.0 -48 -740.0 1 0 0 0 1 0 0 0 1 3010.dat
1 0 510.0 -48 -880.0 1 0 0 0 1 0 0 0 1 3010.dat
1 15 490.0 -48 -960.0 1 0 0 0 1 0 0 0 1 3004.dat
1 0 520.0 -48 -300.0 1 0 0 0 1 0 0 0 1 3622.dat
1 0 500.0 -48 -840.0 0 0 1 0 1 0 -1 0 0 3622.dat
1 0 530.0 -48 -440.0 1 0 0 0 1 0 0 0 1 3004.dat
1 0 540.0 -48 -800.0 1 0 0 0 1 0 0 0 1 3622.dat
1 0 540.0 -48 -960.0 1 0 0 0 1 0 0 0 1 3622.dat
1 0 540.0 -48 -350.0 0 0 1 0 1 0 -1 0 0 3010.dat
1 0 540.0 -48 -410.0 0 0 1 0 1 0 -1 0 0 3004.dat
1 15 560.0 -48 -300.0 1 0 0 0 1 0 0 0 1 3005.dat
1 0 580.0 -48 -420.0 1 0 0 0 1 0 0 0 1 3622.dat
1 0 580.0 -48 -480.0 1 0 0 0 1 0 0 0 1 3622.dat
1 0 580.0 -48 -620.0 1 0 0 0 1 0 0 0 1 3622.dat
1 0 570.0 -48 -740.0 1 0 0 0 1 0 0 0 1 3004.dat
1 0 560.0 -48 -840.0 0 0 1 0 1 0 -1 0 0 3622.dat
1 0 560.0 -48 -920.0 0 0 1 0 1 0 -1 0 0 3622.dat
1 0 590.0 -48 -380.0 1 0 0 0 1 0 0 0 1 3004.dat
1 0 600.0 -48 -330.0 0 0 1 0 1 0 -1 0 0 3010.dat
1 0 600.0 -48 -400.0 1 0 0 0 1 0 0 0 1 3005.dat
1 0 600.0 -48 -450.0 0 0 1 0 1 0 -1 0 0 3004.dat
1 0 600.0 -48 -550.0 0 0 1 0 1 0 -1 0 0 3010.dat
1 0 600.0 -48 -600.0 1 0 0 0 1 0 0 0 1 3005.dat
1 0 600.0 -48 -670.0 0 0 1 0 1 0 -1 0 0 3010.dat
1 0 600.0 -48 -720.0 1 0 0 0 1 0 0 0 1 3005.dat
1 0 600.0 -48 -760.0 1 0 0 0 1 0 0 0 1 3005.dat
1 0 630.0 -48 -300.0 1 0 0 0 1 0 0 0 1 3004.dat
1 0 620.0 -48 -440.0 1 0 0 0 1 0 0 0 1 3005.dat
1 0 630.0 -48 -960.0 1 0 0 0 1 0 0 0 1 3004.dat
1 15 660.0 -48 -300.0 1 0 0 0 1 0 0 0 1 3005.dat
1 0 680.0 -48 -310.0 0 0 1 0 1 0 -1 0 0 3010.dat
1 0 680.0 -48 -390.0 0 0 1 0 1 0 -1 0 0 3010.dat
1 0 710.0 -48 -440.0 1 0 0 0 1 0 0 0 1 3010.dat
1 0 680.0 -48 -510.0 0 0 1 0 1 0 -1 0 0 3010.dat
1 0 680.0 -48 -590.0 0 0 1 0 1 0 -1 0 0 3010.dat
1 0 680.0 -48 -670.0 0 0 1 0 1 0 -1 0 0 3010.dat
1 0 680.0 -48 -750.0 0 0 1 0 1 0 -1 0 0 3010.dat
1 0 680.0 -48 -830.0 0 0 1 0 1 0 -1 0 0 3010.dat
1 0 680.0 -48 -910.0 0 0 1 0 1 0 -1 0 0 3010.dat
1 0 680.0 -48 -1010.0 0 0 1 0 1 0 -1 0 0 3010.dat
1 0 680.0 -48 -1080.0 0 0 1 0 1 0 -1 0 0 3622.dat
1 15 710.0 -48 -280.0 1 0 0 0 1 0 0 0 1 3004.dat
1 0 720.0 -48 -480.0 1 0 0 0 1 0 0 0 1 3622.dat
1 0 700.0 -48 -960.0 1 0 0 0 1 0 0 0 1 3005.dat
1 0 730.0 -48 -1100.0 1 0 0 0 1 0 0 0 1 3010.dat
1 0 760.0 -48 -280.0 1 0 0 0 1 0 0 0 1 3622.dat
1 0 760.0 -48 -440.0 1 0 0 0 1 0 0 0 1 3005.dat
1 0 780.0 -48 -330.0 0 0 1 0 1 0 -1 0 0 3010.dat
1 0 780.0 -48 -400.0 0 0 1 0 1 0 -1 0 0 3622.dat
1 0 810.0 -48 -1100.0 1 0 0 0 1 0 0 0 1 3010.dat
1 15 820.0 -48 -280.0 1 0 0 0 1 0 0 0 1 3622.dat
1 0 830.0 -48 -440.0 1 0 0 0 1 0 0 0 1 3010.dat
1 0 830.0 -48 -480.0 1 0 0 0 1 0 0 0 1 3010.dat
1 0 860.0 -48 -280.0 1 0 0 0 1 0 0 0 1 3005.dat
1 0 890.0 -48 -1100.0 1 0 0 0 1 0 0 0 1 3010.dat
1 0 910.0 -48 -480.0 1 0 0 0 1 0 0 0 1 3010.dat
1 0 900.0 -48 -310.0 0 0 1 0 1 0 -1 0 0 3010.dat
1 0 900.0 -48 -390.0 0 0 1 0 1 0 -1 0 0 3010.dat
1 0 920.0 -48 -440.0 1 0 0 0 1 0 0 0 1 3622.dat
1 0 940.0 -48 -280.0 1 0 0 0 1 0 0 0 1 3622.dat
1 0 950.0 -48 -360.0 1 0 0 0 1 0 0 0 1 3010.dat
1 0 970.0 -48 -1100.0 1 0 0 0 1 0 0 0 1 3010.dat
1 0 960.0 -48 -180.0 0 0 1 0 1 0 -1 0 0 3622.dat
1 0 960.0 -48 -260.0 1 0 0 0 1 0 0 0 1 3005.dat
1 0 960.0 -48 -310.0 0 0 1 0 1 0 -1 0 0 3004.dat
1 0 960.0 -48 -400.0 0 0 1 0 1 0 -1 0 0 3622.dat
1 0 990.0 -48 -480.0 1 0 0 0 1 0 0 0 1 3010.dat
1 0 990.0 -48 -160.0 1 0 0 0 1 0 0 0 1 3004.dat
1 0 980.0 -48 -440.0 1 0 0 0 1 0 0 0 1 3005.dat
1 0 1000.0 -48 -360.0 1 0 0 0 1 0 0 0 1 3005.dat
1 15 1030.0 -48 -160.0 1 0 0 0 1 0 0 0 1 3004.dat
1 15 1050.0 -48 -360.0 1 0 0 0 1 0 0 0 1 3010.dat
1 0 1050.0 -48 -1100.0 1 0 0 0 1 0 0 0 1 3010.dat
1 0 1070.0 -48 -480.0 1 0 0 0 1 0 0 0 1 3010.dat
1 0 1080.0 -48 -160.0 1 0 0 0 1 0 0 0 1 3622.dat
1 15 1120.0 -48 -360.0 1 0 0 0 1 0 0 0 1 3622.dat
1 0 1130.0 -48 -1100.0 1 0 0 0 1 0 0 0 1 3010.dat
1 15 1140.0 -48 -160.0 1 0 0 0 1 0 0 0 1 3622.dat
1 0 1150.0 -48 -480.0 1 0 0 0 1 0 0 0 1 3010.dat
1 0 1160.0 -48 -360.0 1 0 0 0 1 0 0 0 1 3005.dat
1 0 1180.0 -48 -160.0 1 0 0 0 1 0 0 0 1 3005.dat
1 0 1190.0 -48 -1100.0 1 0 0 0 1 0 0 0 1 3004.dat
1 0 1200.0 -48 -140.0 1 0 0 0 1 0 0 0 1 3005.dat
1 0 1200.0 -48 -210.0 0 0 1 0 1 0 -1 0 0 3010.dat
1 0 1200.0 -48 -290.0 0 0 1 0 1 0 -1 0 0 3010.dat
1 0 1200.0 -48 -350.0 0 0 1 0 1 0 -1 0 0 3004.dat
1 0 1200.0 -48 -510.0 0 0 1 0 1 0 -1 0 0 3010.dat
1 0 1200.0 -48 -590.0 0 0 1 0 1 0 -1 0 0 3010.dat
1 0 1200.0 -48 -670.0 0 0 1 0 1 0 -1 0 0 3010.dat
1 0 1200.0 -48 -750.0 0 0 1 0 1 0 -1 0 0 3010.dat
1 0 1200.0 -48 -830.0 0 0 1 0 1 0 -1 0 0 3010.dat
1 0 1200.0 -48 -910.0 0 0 1 0 1 0 -1 0 0 3010.dat
1 0 1200.0 -48 -990.0 0 0 1 0 1 0 -1 0 0 3010.dat
1 0 1200.0 -48 -1060.0 0 0 1 0 1 0 -1 0 0 3622.dat
1 0 1230.0 -48 -160.0 1 0 0 0 1 0 0 0 1 3004.dat
1 15 1250.0 -48 -780.0 1 0 0 0 1 0 0 0 1 3010.dat
1 15 1290.0 -48 -160.0 1 0 0 0 1 0 0 0 1 3010.dat
1 15 1330.0 -48 -780.0 1 0 0 0 1 0 0 0 1 3010.dat
1 15 1370.0 -48 -160.0 1 0 0 0 1 0 0 0 1 3010.dat
1 15 1410.0 -48 -780.0 1 0 0 0 1 0 0 0 1 3010.dat
1 15 1420.0 -48 -160.0 1 0 0 0 1 0 0 0 1 3005.dat
1 0 1440.0 -48 -190.0 0 0 1 0 1 0 -1 0 0 3010.dat
1 0 1470.0 -48 -260.0 1 0 0 0 1 0 0 0 1 3010.dat
1 0 1440.0 -48 -290.0 0 0 1 0 1 0 -1 0 0 3004.dat
1 15 1480.0 -48 -160.0 1 0 0 0 1 0 0 0 1 3622.dat
1 15 1480.0 -48 -780.0 1 0 0 0 1 0 0 0 1 3622.dat
1 0 1520.0 -48 -160.0 1 0 0 0 1 0 0 0 1 3005.dat
1 15 1520.0 -48 -210.0 0 0 1 0 1 0 -1 0 0 3010.dat
1 15 1520.0 -48 -290.0 0 0 1 0 1 0 -1 0 0 3010.dat
1 15 1520.0 -48 -350.0 0 0 1 0 1 0 -1 0 0 3004.dat
1 0 1520.0 -48 -380.0 1 0 0 0 1 0 0 0 1 3005.dat
1 15 1520.0 -48 -440.0 1 0 0 0 1 0 0 0 1 3005.dat
1 0 1520.0 -48 -460.0 1 0 0 0 1 0 0 0 1 3005.dat
1 15 1520.0 -48 -510.0 0 0 1 0 1 0 -1 0 0 3010.dat
1 15 1520.0 -48 -590.0 0 0 1 0 1 0 -1 0 0 3010.dat
1 15 1520.0 -48 -670.0 0 0 1 0 1 0 -1 0 0 3010.dat
1 15 1520.0 -48 -740.0 0 0 1 0 1 0 -1 0 0 3622.dat
1 0 1520.0 -48 -780.0 1 0 0 0 1 0 0 0 1 3005.dat
1 15 1560.0 -48 -360.0 1 0 0 0 1 0 0 0 1 3622.dat
1 15 1550.0 -48 -460.0 1 0 0 0 1 0 0 0 1 3004.dat
1 0 1580.0 -48 -380.0 1 0 0 0 1 0 0 0 1 3005.dat
1 15 1580.0 -48 -440.0 1 0 0 0 1 0 0 0 1 3005.dat
1 0 1580.0 -48 -460.0 1 0 0 0 1 0 0 0 1 3005.dat
1 72 1090.0 -48 -230.0 1 0 0 0 1 0 0 0 1 3003.dat
1 72 1010.0 -48 -310.0 1 0 0 0 1 0 0 0 1 3003.dat
1 71 630.0 -48 -390.0 1 0 0 0 1 0 0 0 1 3003.dat
1 71 1230.0 -48 -330.0 1 0 0 0 1 0 0 0 1 3003.dat
1 71 1230.0 -48 -370.0 1 0 0 0 1 0 0 0 1 3003.dat
0 STEP
1 0 300.0 -72 -770.0 0 0 1 0 1 0 -1 0 0 3010.dat
1 0 380.0 -72 -800.0 1 0 0 0 1 0 0 0 1 3622.dat
1 0 500.0 -72 -800.0 1 0 0 0 1 0 0 0 1 3622.dat
1 0 400.0 -72 -880.0 0 0 1 0 1 0 -1 0 0 3622.dat
1 0 560.0 -72 -880.0 0 0 1 0 1 0 -1 0 0 3622.dat
1 0 590.0 -72 -960.0 1 0 0 0 1 0 0 0 1 3010.dat
1 0 670.0 -72 -960.0 1 0 0 0 1 0 0 0 1 3010.dat
1 0 600.0 -72 -740.0 0 0 1 0 1 0 -1 0 0 3622.dat
1 0 600.0 -72 -500.0 0 0 1 0 1 0 -1 0 0 3622.dat
1 0 360.0 -72 -680.0 0 0 1 0 1 0 -1 0 0 3622.dat
1 0 360.0 -72 -560.0 0 0 1 0 1 0 -1 0 0 3622.dat
1 0 580.0 -72 -300.0 1 0 0 0 1 0 0 0 1 3622.dat
1 0 360.0 -72 -460.0 0 0 1 0 1 0 -1 0 0 3622.dat
1 0 420.0 -72 -440.0 1 0 0 0 1 0 0 0 1 3622.dat
1 0 500.0 -72 -440.0 1 0 0 0 1 0 0 0 1 3622.dat
1 0 560.0 -72 -380.0 1 0 0 0 1 0 0 0 1 3622.dat
1 0 650.0 -72 -440.0 1 0 0 0 1 0 0 0 1 3010.dat
1 0 770.0 -72 -480.0 1 0 0 0 1 0 0 0 1 3010.dat
1 0 780.0 -72 -440.0 1 0 0 0 1 0 0 0 1 3622.dat
1 0 880.0 -72 -440.0 1 0 0 0 1 0 0 0 1 3622.dat
1 0 960.0 -72 -440.0 1 0 0 0 1 0 0 0 1 3622.dat
1 0 880.0 -72 -280.0 1 0 0 0 1 0 0 0 1 3622.dat
1 0 960.0 -72 -340.0 0 0 1 0 1 0 -1 0 0 3622.dat
1 0 960.0 -72 -230.0 0 0 1 0 1 0 -1 0 0 3010.dat
1 0 1180.0 -72 -360.0 1 0 0 0 1 0 0 0 1 3622.dat
1 0 1200.0 -72 -160.0 0 0 1 0 1 0 -1 0 0 3622.dat
1 0 1520.0 -72 -410.0 0 0 1 0 1 0 -1 0 0 3010.dat
1 0 1580.0 -72 -410.0 0 0 1 0 1 0 -1 0 0 3010.dat
1 0 1440.0 -72 -240.0 0 0 1 0 1 0 -1 0 0 3622.dat
1 0 980.0 -72 -160.0 1 0 0 0 1 0 0 0 1 3622.dat
1 15 1030.0 -72 -160.0 1 0 0 0 1 0 0 0 1 3004.dat
1 0 1080.0 -72 -160.0 1 0 0 0 1 0 0 0 1 3622.dat
1 15 1140.0 -72 -160.0 1 0 0 0 1 0 0 0 1 3622.dat
1 0 1180.0 -72 -160.0 1 0 0 0 1 0 0 0 1 3005.dat
1 0 1230.0 -72 -160.0 1 0 0 0 1 0 0 0 1 3004.dat
1 15 1290.0 -72 -160.0 1 0 0 0 1 0 0 0 1 3010.dat
1 15 1370.0 -72 -160.0 1 0 0 0 1 0 0 0 1 3010.dat
1 15 1420.0 -72 -160.0 1 0 0 0 1 0 0 0 1 3005.dat
1 0 1440.0 -72 -180.0 0 0 1 0 1 0 -1 0 0 3622.dat
1 15 1480.0 -72 -160.0 1 0 0 0 1 0 0 0 1 3622.dat
1 0 1520.0 -72 -160.0 1 0 0 0 1 0 0 0 1 3005.dat
1 0 960.0 -72 -180.0 1 0 0 0 1 0 0 0 1 3005.dat
1 15 1520.0 -72 -210.0 0 0 1 0 1 0 -1 0 0 3010.dat
1 0 1200.0 -72 -230.0 0 0 1 0 1 0 -1 0 0 3010.dat
1 0 1480.0 -72 -260.0 1 0 0 0 1 0 0 0 1 3622.dat
1 15 1520.0 -72 -290.0 0 0 1 0 1 0 -1 0 0 3010.dat
1 0 680.0 -72 -310.0 0 0 1 0 1 0 -1 0 0 3010.dat
1 15 710.0 -72 -280.0 1 0 0 0 1 0 0 0 1 3004.dat
1 0 760.0 -72 -280.0 1 0 0 0 1 0 0 0 1 3622.dat
1 15 820.0 -72 -280.0 1 0 0 0 1 0 0 0 1 3622.dat
1 0 940.0 -72 -280.0 1 0 0 0 1 0 0 0 1 3622.dat
1 0 1200.0 -72 -310.0 0 0 1 0 1 0 -1 0 0 3010.dat
1 0 1440.0 -72 -290.0 0 0 1 0 1 0 -1 0 0 3004.dat
1 0 330.0 -72 -300.0 1 0 0 0 1 0 0 0 1 3010.dat
1 0 410.0 -72 -300.0 1 0 0 0 1 0 0 0 1 3010.dat
1 0 490.0 -72 -300.0 1 0 0 0 1 0 0 0 1 3010.dat
1 0 540.0 -72 -330.0 0 0 1 0 1 0 -1 0 0 3010.dat
1 0 630.0 -72 -300.0 1 0 0 0 1 0 0 0 1 3004.dat
1 15 660.0 -72 -300.0 1 0 0 0 1 0 0 0 1 3005.dat
1 0 780.0 -72 -330.0 0 0 1 0 1 0 -1 0 0 3010.dat
1 0 900.0 -72 -330.0 0 0 1 0 1 0 -1 0 0 3010.dat
1 0 960.0 -72 -300.0 1 0 0 0 1 0 0 0 1 3005.dat
1 0 300.0 -72 -350.0 0 0 1 0 1 0 -1 0 0 3010.dat
1 0 400.0 -72 -350.0 0 0 1 0 1 0 -1 0 0 3010.dat
1 0 460.0 -72 -350.0 0 0 1 0 1 0 -1 0 0 3010.dat
1 0 600.0 -72 -350.0 0 0 1 0 1 0 -1 0 0 3010.dat
1 15 1520.0 -72 -350.0 0 0 1 0 1 0 -1 0 0 3004.dat
1 0 680.0 -72 -390.0 0 0 1 0 1 0 -1 0 0 3010.dat
1 0 930.0 -72 -360.0 1 0 0 0 1 0 0 0 1 3004.dat
1 0 990.0 -72 -360.0 1 0 0 0 1 0 0 0 1 3004.dat
1 15 1050.0 -72 -360.0 1 0 0 0 1 0 0 0 1 3010.dat
1 15 1120.0 -72 -360.0 1 0 0 0 1 0 0 0 1 3622.dat
1 15 1560.0 -72 -360.0 1 0 0 0 1 0 0 0 1 3622.dat
1 0 350.0 -72 -380.0 1 0 0 0 1 0 0 0 1 3010.dat
1 0 780.0 -72 -400.0 0 0 1 0 1 0 -1 0 0 3622.dat
1 0 900.0 -72 -400.0 0 0 1 0 1 0 -1 0 0 3622.dat
1 0 960.0 -72 -400.0 0 0 1 0 1 0 -1 0 0 3622.dat
1 0 300.0 -72 -430.0 0 0 1 0 1 0 -1 0 0 3010.dat
1 0 360.0 -72 -410.0 0 0 1 0 1 0 -1 0 0 3004.dat
1 0 400.0 -72 -410.0 0 0 1 0 1 0 -1 0 0 3004.dat
1 0 460.0 -72 -420.0 0 0 1 0 1 0 -1 0 0 3622.dat
1 0 540.0 -72 -420.0 0 0 1 0 1 0 -1 0 0 3622.dat
1 0 600.0 -72 -430.0 0 0 1 0 1 0 -1 0 0 3010.dat
1 0 570.0 -72 -420.0 1 0 0 0 1 0 0 0 1 3004.dat
1 0 380.0 -72 -440.0 1 0 0 0 1 0 0 0 1 3005.dat
1 0 720.0 -72 -440.0 1 0 0 0 1 0 0 0 1 3622.dat
1 0 830.0 -72 -440.0 1 0 0 0 1 0 0 0 1 3004.dat
1 0 920.0 -72 -440.0 1 0 0 0 1 0 0 0 1 3005.dat
1 0 1520.0 -72 -460.0 1 0 0 0 1 0 0 0 1 3005.dat
1 15 1550.0 -72 -460.0 1 0 0 0 1 0 0 0 1 3004.dat
1 0 1580.0 -72 -460.0 1 0 0 0 1 0 0 0 1 3005.dat
1 0 300.0 -72 -510.0 0 0 1 0 1 0 -1 0 0 3010.dat
1 0 330.0 -72 -480.0 1 0 0 0 1 0 0 0 1 3004.dat
1 0 410.0 -72 -480.0 1 0 0 0 1 0 0 0 1 3010.dat
1 0 490.0 -72 -480.0 1 0 0 0 1 0 0 0 1 3010.dat
1 0 560.0 -72 -480.0 1 0 0 0 1 0 0 0 1 3622.dat
1 0 680.0 -72 -510.0 0 0 1 0 1 0 -1 0 0 3010.dat
1 0 710.0 -72 -480.0 1 0 0 0 1 0 0 0 1 3004.dat
1 0 850.0 -72 -480.0 1 0 0 0 1 0 0 0 1 3010.dat
1 0 930.0 -72 -480.0 1 0 0 0 1 0 0 0 1 3010.dat
1 0 1010.0 -72 -480.0 1 0 0 0 1 0 0 0 1 3010.dat
1 0 1090.0 -72 -480.0 1 0 0 0 1 0 0 0 1 3010.dat
1 0 1170.0 -72 -480.0 1 0 0 0 1 0 0 0 1 3010.dat
1 15 1520.0 -72 -510.0 0 0 1 0 1 0 -1 0 0 3010.dat
1 0 360.0 -72 -510.0 0 0 1 0 1 0 -1 0 0 3004.dat
1 0 1200.0 -72 -530.0 0 0 1 0 1 0 -1 0 0 3010.dat
1 0 600.0 -72 -570.0 0 0 1 0 1 0 -1 0 0 3010.dat
1 0 300.0 -72 -590.0 0 0 1 0 1 0 -1 0 0 3010.dat
1 0 680.0 -72 -590.0 0 0 1 0 1 0 -1 0 0 3010.dat
1 15 1520.0 -72 -590.0 0 0 1 0 1 0 -1 0 0 3010.dat
1 0 1200.0 -72 -610.0 0 0 1 0 1 0 -1 0 0 3010.dat
1 0 360.0 -72 -620.0 0 0 1 0 1 0 -1 0 0 3622.dat
1 0 330.0 -72 -620.0 1 0 0 0 1 0 0 0 1 3004.dat
1 0 410.0 -72 -620.0 1 0 0 0 1 0 0 0 1 3010.dat
1 0 490.0 -72 -620.0 1 0 0 0 1 0 0 0 1 3010.dat
1 0 570.0 -72 -620.0 1 0 0 0 1 0 0 0 1 3010.dat
1 0 300.0 -72 -670.0 0 0 1 0 1 0 -1 0 0 3010.dat
1 0 600.0 -72 -670.0 0 0 1 0 1 0 -1 0 0 3010.dat
1 0 680.0 -72 -670.0 0 0 1 0 1 0 -1 0 0 3010.dat
1 15 1520.0 -72 -670.0 0 0 1 0 1 0 -1 0 0 3010.dat
1 0 1200.0 -72 -690.0 0 0 1 0 1 0 -1 0 0 3010.dat
1 0 300.0 -72 -720.0 1 0 0 0 1 0 0 0 1 3005.dat
1 0 360.0 -72 -730.0 0 0 1 0 1 0 -1 0 0 3004.dat
1 0 680.0 -72 -750.0 0 0 1 0 1 0 -1 0 0 3010.dat
1 15 1520.0 -72 -740.0 0 0 1 0 1 0 -1 0 0 3622.dat
1 0 330.0 -72 -740.0 1 0 0 0 1 0 0 0 1 3004.dat
1 0 410.0 -72 -740.0 1 0 0 0 1 0 0 0 1 3010.dat
1 0 490.0 -72 -740.0 1 0 0 0 1 0 0 0 1 3010.dat
1 0 560.0 -72 -740.0 1 0 0 0 1 0 0 0 1 3622.dat
1 0 1200.0 -72 -770.0 0 0 1 0 1 0 -1 0 0 3010.dat
1 15 1250.0 -72 -780.0 1 0 0 0 1 0 0 0 1 3010.dat
1 15 1330.0 -72 -780.0 1 0 0 0 1 0 0 0 1 3010.dat
1 15 1410.0 -72 -780.0 1 0 0 0 1 0 0 0 1 3010.dat
1 15 1480.0 -72 -780.0 1 0 0 0 1 0 0 0 1 3622.dat
1 0 1520.0 -72 -780.0 1 0 0 0 1 0 0 0 1 3005.dat
1 0 330.0 -72 -800.0 1 0 0 0 1 0 0 0 1 3004.dat
1 0 440.0 -72 -800.0 1 0 0 0 1 0 0 0 1 3622.dat
1 0 550.0 -72 -800.0 1 0 0 0 1 0 0 0 1 3004.dat
1 0 680.0 -72 -830.0 0 0 1 0 1 0 -1 0 0 3010.dat
1 0 300.0 -72 -850.0 0 0 1 0 1 0 -1 0 0 3010.dat
1 0 400.0 -72 -830.0 0 0 1 0 1 0 -1 0 0 3004.dat
1 0 460.0 -72 -850.0 0 0 1 0 1 0 -1 0 0 3010.dat
1 0 500.0 -72 -850.0 0 0 1 0 1 0 -1 0 0 3010.dat
1 0 560.0 -72 -830.0 0 0 1 0 1 0 -1 0 0 3004.dat
1 0 1200.0 -72 -850.0 0 0 1 0 1 0 -1 0 0 3010.dat
1 0 430.0 -72 -860.0 1 0 0 0 1 0 0 0 1 3004.dat
1 0 480.0 -72 -880.0 1 0 0 0 1 0 0 0 1 3005.dat
1 0 530.0 -72 -880.0 1 0 0 0 1 0 0 0 1 3004.dat
1 0 680.0 -72 -910.0 0 0 1 0 1 0 -1 0 0 3010.dat
1 0 300.0 -72 -930.0 0 0 1 0 1 0 -1 0 0 3010.dat
1 0 460.0 -72 -930.0 0 0 1 0 1 0 -1 0 0 3010.dat
1 0 1200.0 -72 -930.0 0 0 1 0 1 0 -1 0 0 3010.dat
1 0 400.0 -72 -940.0 0 0 1 0 1 0 -1 0 0 3622.dat
1 0 560.0 -72 -930.0 0 0 1 0 1 0 -1 0 0 3004.dat
1 15 340.0 -72 -960.0 1 0 0 0 1 0 0 0 1 3622.dat
1 0 380.0 -72 -960.0 1 0 0 0 1 0 0 0 1 3005.dat
1 15 420.0 -72 -960.0 1 0 0 0 1 0 0 0 1 3005.dat
1 0 440.0 -72 -960.0 1 0 0 0 1 0 0 0 1 3005.dat
1 15 490.0 -72 -960.0 1 0 0 0 1 0 0 0 1 3004.dat
1 0 530.0 -72 -960.0 1 0 0 0 1 0 0 0 1 3004.dat
1 0 680.0 -72 -1010.0 0 0 1 0 1 0 -1 0 0 3010.dat
1 0 1200.0 -72 -1010.0 0 0 1 0 1 0 -1 0 0 3010.dat
1 0 680.0 -72 -1080.0 0 0 1 0 1 0 -1 0 0 3622.dat
1 0 1200.0 -72 -1080.0 0 0 1 0 1 0 -1 0 0 3622.dat
1 0 730.0 -72 -1100.0 1 0 0 0 1 0 0 0 1 3010.dat
1 0 810.0 -72 -1100.0 1 0 0 0 1 0 0 0 1 3010.dat
1 0 890.0 -72 -1100.0 1 0 0 0 1 0 0 0 1 3010.dat
1 0 970.0 -72 -1100.0 1 0 0 0 1 0 0 0 1 3010.dat
1 0 1050.0 -72 -1100.0 1 0 0 0 1 0 0 0 1 3010.dat
1 0 1130.0 -72 -1100.0 1 0 0 0 1 0 0 0 1 3010.dat
1 0 1180.0 -72 -1100.0 1 0 0 0 1 0 0 0 1 3005.dat
1 71 1230.0 -72 -370.0 1 0 0 0 1 0 0 0 1 3003.dat
0 STEP
1 0 300.0 -96 -330.0 0 0 1 0 1 0 -1 0 0 3010.dat
1 0 300.0 -96 -410.0 0 0 1 0 1 0 -1 0 0 3010.dat
1 0 300.0 -96 -490.0 0 0 1 0 1 0 -1 0 0 3010.dat
1 0 300.0 -96 -570.0 0 0 1 0 1 0 -1 0 0 3010.dat
1 0 300.0 -96 -650.0 0 0 1 0 1 0 -1 0 0 3010.dat
1 0 300.0 -96 -730.0 0 0 1 0 1 0 -1 0 0 3010.dat
1 0 300.0 -96 -810.0 0 0 1 0 1 0 -1 0 0 3010.dat
1 0 300.0 -96 -890.0 0 0 1 0 1 0 -1 0 0 3010.dat
1 0 300.0 -96 -950.0 0 0 1 0 1 0 -1 0 0 3004.dat
1 0 350.0 -96 -300.0 1 0 0 0 1 0 0 0 1 3010.dat
1 0 350.0 -96 -380.0 1 0 0 0 1 0 0 0 1 3010.dat
1 0 350.0 -96 -480.0 1 0 0 0 1 0 0 0 1 3010.dat
1 0 350.0 -96 -620.0 1 0 0 0 1 0 0 0 1 3010.dat
1 0 350.0 -96 -740.0 1 0 0 0 1 0 0 0 1 3010.dat
1 0 350.0 -96 -800.0 1 0 0 0 1 0 0 0 1 3010.dat
1 0 350.0 -96 -960.0 1 0 0 0 1 0 0 0 1 3010.dat
1 0 360.0 -96 -430.0 0 0 1 0 1 0 -1 0 0 3010.dat
1 0 360.0 -96 -530.0 0 0 1 0 1 0 -1 0 0 3010.dat
1 0 360.0 -96 -590.0 0 0 1 0 1 0 -1 0 0 3004.dat
1 0 360.0 -96 -670.0 0 0 1 0 1 0 -1 0 0 3010.dat
1 0 360.0 -96 -720.0 1 0 0 0 1 0 0 0 1 3005.dat
1 0 410.0 -96 -440.0 1 0 0 0 1 0 0 0 1 3010.dat
1 0 400.0 -96 -330.0 0 0 1 0 1 0 -1 0 0 3010.dat
1 0 400.0 -96 -400.0 0 0 1 0 1 0 -1 0 0 3622.dat
1 0 430.0 -96 -480.0 1 0 0 0 1 0 0 0 1 3010.dat
1 0 430.0 -96 -620.0 1 0 0 0 1 0 0 0 1 3010.dat
1 0 430.0 -96 -740.0 1 0 0 0 1 0 0 0 1 3010.dat
1 0 400.0 -96 -830.0 0 0 1 0 1 0 -1 0 0 3010.dat
1 0 400.0 -96 -910.0 0 0 1 0 1 0 -1 0 0 3010.dat
1 0 430.0 -96 -960.0 1 0 0 0 1 0 0 0 1 3010.dat
1 0 450.0 -96 -300.0 1 0 0 0 1 0 0 0 1 3010.dat
1 0 450.0 -96 -800.0 1 0 0 0 1 0 0 0 1 3010.dat
1 0 440.0 -96 -860.0 1 0 0 0 1 0 0 0 1 3622.dat
1 0 460.0 -96 -350.0 0 0 1 0 1 0 -1 0 0 3010.dat
1 0 460.0 -96 -420.0 0 0 1 0 1 0 -1 0 0 3622.dat
1 0 460.0 -96 -830.0 0 0 1 0 1 0 -1 0 0 3004.dat
1 0 460.0 -96 -910.0 0 0 1 0 1 0 -1 0 0 3010.dat
1 0 510.0 -96 -440.0 1 0 0 0 1 0 0 0 1 3010.dat
1 0 510.0 -96 -480.0 1 0 0 0 1 0 0 0 1 3010.dat
1 0 510.0 -96 -620.0 1 0 0 0 1 0 0 0 1 3010.dat
1 0 510.0 -96 -740.0 1 0 0 0 1 0 0 0 1 3010.dat
1 0 510.0 -96 -880.0 1 0 0 0 1 0 0 0 1 3010.dat
1 0 510.0 -96 -960.0 1 0 0 0 1 0 0 0 1 3010.dat
1 0 530.0 -96 -300.0 1 0 0 0 1 0 0 0 1 3010.dat
1 0 500.0 -96 -830.0 0 0 1 0 1 0 -1 0 0 3010.dat
1 0 540.0 -96 -800.0 1 0 0 0 1 0 0 0 1 3622.dat
1 0 540.0 -96 -350.0 0 0 1 0 1 0 -1 0 0 3010.dat
1 0 540.0 -96 -410.0 0 0 1 0 1 0 -1 0 0 3004.dat
1 0 580.0 -96 -380.0 1 0 0 0 1 0 0 0 1 3622.dat
1 0 580.0 -96 -420.0 1 0 0 0 1 0 0 0 1 3622.dat
1 0 580.0 -96 -480.0 1 0 0 0 1 0 0 0 1 3622.dat
1 0 580.0 -96 -620.0 1 0 0 0 1 0 0 0 1 3622.dat
1 0 580.0 -96 -740.0 1 0 0 0 1 0 0 0 1 3622.dat
1 0 560.0 -96 -850.0 0 0 1 0 1 0 -1 0 0 3010.dat
1 0 560.0 -96 -930.0 0 0 1 0 1 0 -1 0 0 3010.dat
1 0 610.0 -96 -300.0 1 0 0 0 1 0 0 0 1 3010.dat
1 0 610.0 -96 -960.0 1 0 0 0 1 0 0 0 1 3010.dat
1 0 600.0 -96 -340.0 0 0 1 0 1 0 -1 0 0 3622.dat
1 0 600.0 -96 -400.0 1 0 0 0 1 0 0 0 1 3005.dat
1 0 630.0 -96 -440.0 1 0 0 0 1 0 0 0 1 3010.dat
1 0 600.0 -96 -460.0 1 0 0 0 1 0 0 0 1 3005.dat
1 0 600.0 -96 -530.0 0 0 1 0 1 0 -1 0 0 3010.dat
1 0 600.0 -96 -590.0 0 0 1 0 1 0 -1 0 0 3004.dat
1 0 600.0 -96 -670.0 0 0 1 0 1 0 -1 0 0 3010.dat
1 0 600.0 -96 -720.0 1 0 0 0 1 0 0 0 1 3005.dat
1 0 600.0 -96 -760.0 1 0 0 0 1 0 0 0 1 3005.dat
1 0 670.0 -96 -300.0 1 0 0 0 1 0 0 0 1 3004.dat
1 0 680.0 -96 -960.0 1 0 0 0 1 0 0 0 1 3622.dat
1 0 710.0 -96 -280.0 1 0 0 0 1 0 0 0 1 3010.dat
1 0 680.0 -96 -350.0 0 0 1 0 1 0 -1 0 0 3010.dat
1 0 680.0 -96 -420.0 0 0 1 0 1 0 -1 0 0 3622.dat
1 0 680.0 -96 -510.0 0 0 1 0 1 0 -1 0 0 3010.dat
1 0 680.0 -96 -590.0 0 0 1 0 1 0 -1 0 0 3010.dat
1 0 680.0 -96 -670.0 0 0 1 0 1 0 -1 0 0 3010.dat
1 0 680.0 -96 -750.0 0 0 1 0 1 0 -1 0 0 3010.dat
1 0 680.0 -96 -830.0 0 0 1 0 1 0 -1 0 0 3010.dat
1 0 680.0 -96 -910.0 0 0 1 0 1 0 -1 0 0 3010.dat
1 0 680.0 -96 -1010.0 0 0 1 0 1 0 -1 0 0 3010.dat
1 0 680.0 -96 -1080.0 0 0 1 0 1 0 -1 0 0 3622.dat
1 0 730.0 -96 -440.0 1 0 0 0 1 0 0 0 1 3010.dat
1 0 730.0 -96 -480.0 1 0 0 0 1 0 0 0 1 3010.dat
1 0 730.0 -96 -1100.0 1 0 0 0 1 0 0 0 1 3010.dat
1 0 790.0 -96 -280.0 1 0 0 0 1 0 0 0 1 3010.dat
1 0 780.0 -96 -330.0 0 0 1 0 1 0 -1 0 0 3010.dat
1 0 780.0 -96 -410.0 0 0 1 0 1 0 -1 0 0 3010.dat
1 0 810.0 -96 -480.0 1 0 0 0 1 0 0 0 1 3010.dat
1 0 810.0 -96 -1100.0 1 0 0 0 1 0 0 0 1 3010.dat
1 0 830.0 -96 -440.0 1 0 0 0 1 0 0 0 1 3010.dat
1 0 870.0 -96 -280.0 1 0 0 0 1 0 0 0 1 3010.dat
1 0 890.0 -96 -480.0 1 0 0 0 1 0 0 0 1 3010.dat
1 0 890.0 -96 -1100.0 1 0 0 0 1 0 0 0 1 3010.dat
1 0 910.0 -96 -440.0 1 0 0 0 1 0 0 0 1 3010.dat
1 0 900.0 -96 -330.0 0 0 1 0 1 0 -1 0 0 3010.dat
1 0 900.0 -96 -400.0 0 0 1 0 1 0 -1 0 0 3622.dat
1 0 940.0 -96 -280.0 1 0 0 0 1 0 0 0 1 3622.dat
1 0 950.0 -96 -360.0 1 0 0 0 1 0 0 0 1 3010.dat
1 0 970.0 -96 -480.0 1 0 0 0 1 0 0 0 1 3010.dat
1 0 970.0 -96 -1100.0 1 0 0 0 1 0 0 0 1 3010.dat
1 0 960.0 -96 -190.0 0 0 1 0 1 0 -1 0 0 3010.dat
1 0 960.0 -96 -250.0 0 0 1 0 1 0 -1 0 0 3004.dat
1 0 960.0 -96 -320.0 0 0 1 0 1 0 -1 0 0 3622.dat
1 0 960.0 -96 -410.0 0 0 1 0 1 0 -1 0 0 3010.dat
1 0 1010.0 -96 -160.0 1 0 0 0 1 0 0 0 1 3010.dat
1 0 980.0 -96 -440.0 1 0 0 0 1 0 0 0 1 3005.dat
1 0 1030.0 -96 -360.0 1 0 0 0 1 0 0 0 1 3010.dat
1 0 1050.0 -96 -480.0 1 0 0 0 1 0 0 0 1 3010.dat
1 0 1050.0 -96 -1100.0 1 0 0 0 1 0 0 0 1 3010.dat
1 0 1090.0 -96 -160.0 1 0 0 0 1 0 0 0 1 3010.dat
1 0 1110.0 -96 -360.0 1 0 0 0 1 0 0 0 1 3010.dat
1 0 1130.0 -96 -480.0 1 0 0 0 1 0 0 0 1 3010.dat
1 0 1130.0 -96 -1100.0 1 0 0 0 1 0 0 0 1 3010.dat
1 0 1170.0 -96 -160.0 1 0 0 0 1 0 0 0 1 3010.dat
1 0 1180.0 -96 -360.0 1 0 0 0 1 0 0 0 1 3622.dat
1 0 1190.0 -96 -480.0 1 0 0 0 1 0 0 0 1 3004.dat
1 0 1190.0 -96 -1100.0 1 0 0 0 1 0 0 0 1 3004.dat
1 0 1200.0 -96 -140.0 1 0 0 0 1 0 0 0 1 3005.dat
1 0 1200.0 -96 -210.0 0 0 1 0 1 0 -1 0 0 3010.dat
1 0 1200.0 -96 -290.0 0 0 1 0 1 0 -1 0 0 3010.dat
1 0 1200.0 -96 -340.0 1 0 0 0 1 0 0 0 1 3005.dat
1 0 1200.0 -96 -530.0 0 0 1 0 1 0 -1 0 0 3010.dat
1 0 1200.0 -96 -610.0 0 0 1 0 1 0 -1 0 0 3010.dat
1 0 1200.0 -96 -690.0 0 0 1 0 1 0 -1 0 0 3010.dat
1 0 1200.0 -96 -770.0 0 0 1 0 1 0 -1 0 0 3010.dat
1 0 1200.0 -96 -850.0 0 0 1 0 1 0 -1 0 0 3010.dat
1 0 1200.0 -96 -930.0 0 0 1 0 1 0 -1 0 0 3010.dat
1 0 1200.0 -96 -1010.0 0 0 1 0 1 0 -1 0 0 3010.dat
1 0 1200.0 -96 -1070.0 0 0 1 0 1 0 -1 0 0 3004.dat
1 0 1250.0 -96 -160.0 1 0 0 0 1 0 0 0 1 3010.dat
1 0 1250.0 -96 -780.0 1 0 0 0 1 0 0 0 1 3010.dat
1 0 1330.0 -96 -160.0 1 0 0 0 1 0 0 0 1 3010.dat
1 0 1330.0 -96 -780.0 1 0 0 0 1 0 0 0 1 3010.dat
1 0 1410.0 -96 -160.0 1 0 0 0 1 0 0 0 1 3010.dat
1 0 1410.0 -96 -780.0 1 0 0 0 1 0 0 0 1 3010.dat
1 0 1440.0 -96 -210.0 0 0 1 0 1 0 -1 0 0 3010.dat
1 0 1470.0 -96 -260.0 1 0 0 0 1 0 0 0 1 3010.dat
1 0 1440.0 -96 -290.0 0 0 1 0 1 0 -1 0 0 3004.dat
1 0 1490.0 -96 -160.0 1 0 0 0 1 0 0 0 1 3010.dat
1 0 1490.0 -96 -780.0 1 0 0 0 1 0 0 0 1 3010.dat
1 0 1520.0 -96 -210.0 0 0 1 0 1 0 -1 0 0 3010.dat
1 0 1520.0 -96 -290.0 0 0 1 0 1 0 -1 0 0 3010.dat
1 0 1520.0 -96 -370.0 0 0 1 0 1 0 -1 0 0 3010.dat
1 0 1520.0 -96 -450.0 0 0 1 0 1 0 -1 0 0 3010.dat
1 0 1520.0 -96 -530.0 0 0 1 0 1 0 -1 0 0 3010.dat
1 0 1520.0 -96 -610.0 0 0 1 0 1 0 -1 0 0 3010.dat
1 0 1520.0 -96 -690.0 0 0 1 0 1 0 -1 0 0 3010.dat
1 0 1520.0 -96 -750.0 0 0 1 0 1 0 -1 0 0 3004.dat
1 0 1560.0 -96 -360.0 1 0 0 0 1 0 0 0 1 3622.dat
1 0 1560.0 -96 -460.0 1 0 0 0 1 0 0 0 1 3622.dat
1 0 1580.0 -96 -410.0 0 0 1 0 1 0 -1 0 0 3010.dat
0 STEP